<?xml version="1.0" encoding="utf-8"?>
<!-- Generator: Adobe Illustrator 16.0.0, SVG Export Plug-In . SVG Version: 6.00 Build 0)  -->
<!DOCTYPE svg PUBLIC "-//W3C//DTD SVG 1.1//EN" "http://www.w3.org/Graphics/SVG/1.1/DTD/svg11.dtd">
<svg version="1.1" id="Calque_1" xmlns="http://www.w3.org/2000/svg" xmlns:xlink="http://www.w3.org/1999/xlink" x="0px" y="0px"
	 width="56.516px" height="64px" viewBox="0 0 56.516 64" enable-background="new 0 0 56.516 64" xml:space="preserve">
<g>
	<path fill-rule="evenodd" clip-rule="evenodd" fill="#010101" d="M56.516,20.564c0.027,8.889-1.121,17.544-5.281,25.562
		c-4.851,9.348-12.568,15.087-22.634,17.836c-0.321,0.088-0.598,0.007-0.896-0.075C15.433,60.495,7.221,52.742,2.977,40.781
		c-2.268-6.391-3.013-13.033-2.975-19.776c0.023-4.083,0.368-8.144,1.077-12.17c0.09-0.512,0.283-0.747,0.791-0.9
		c8.623-2.6,17.239-5.22,25.853-7.847c0.365-0.111,0.682-0.121,1.052-0.008c8.614,2.627,17.23,5.248,25.854,7.845
		c0.548,0.165,0.73,0.432,0.823,0.968C56.112,12.756,56.465,16.644,56.516,20.564z M55.117,20.533
		c-0.021-2.913-0.314-6.75-0.902-10.567c-0.083-0.54-0.302-0.787-0.837-0.948C45.209,6.556,37.047,4.071,28.887,1.58
		c-0.419-0.128-0.792-0.144-1.217-0.014C19.484,4.065,11.295,6.557,3.1,9.03C2.601,9.18,2.387,9.422,2.313,9.925
		c-0.262,1.768-0.491,3.54-0.635,5.322c-0.63,7.799-0.255,15.519,1.963,23.07C7.274,50.682,15.14,58.852,27.63,62.411
		c0.388,0.11,0.747,0.154,1.144,0.042c11.653-3.301,19.501-10.646,23.459-22.104C54.344,34.239,55.105,27.916,55.117,20.533z"/>
	<path fill-rule="evenodd" clip-rule="evenodd" fill="#F9F9F9" d="M55.117,20.533c-0.012,7.383-0.773,13.707-2.885,19.817
		c-3.958,11.457-11.806,18.803-23.459,22.104c-0.396,0.112-0.756,0.068-1.144-0.042C15.14,58.852,7.274,50.682,3.641,38.317
		c-2.219-7.552-2.594-15.271-1.963-23.07c0.144-1.782,0.373-3.554,0.635-5.322C2.387,9.422,2.601,9.18,3.1,9.03
		c8.195-2.473,16.384-4.965,24.57-7.464c0.425-0.13,0.798-0.114,1.217,0.014c8.16,2.492,16.322,4.977,24.491,7.438
		c0.535,0.161,0.754,0.408,0.837,0.948C54.803,13.782,55.096,17.62,55.117,20.533z M52.779,20.917
		c0.019-1.885-0.332-5.465-0.881-9.032c-0.078-0.502-0.317-0.692-0.764-0.827c-7.447-2.249-14.893-4.506-22.333-6.777
		c-0.4-0.122-0.742-0.103-1.132,0.017c-7.416,2.26-14.832,4.513-22.256,6.745c-0.544,0.164-0.735,0.441-0.81,0.977
		c-0.203,1.466-0.416,2.929-0.55,4.404C3.378,23.86,3.716,31.214,5.964,38.39c3.44,10.981,10.607,18.182,21.752,21.313
		c0.301,0.084,0.579,0.154,0.897,0.065c9.045-2.502,15.843-7.765,19.95-16.294C51.732,36.895,52.747,29.867,52.779,20.917z"/>
	<path fill-rule="evenodd" clip-rule="evenodd" fill="#010101" d="M52.779,20.917c-0.032,8.95-1.047,15.978-4.216,22.558
		c-4.107,8.529-10.905,13.792-19.95,16.294c-0.318,0.089-0.597,0.019-0.897-0.065C16.571,56.571,9.404,49.371,5.964,38.39
		c-2.248-7.176-2.586-14.529-1.91-21.967c0.134-1.475,0.348-2.938,0.55-4.404c0.074-0.536,0.265-0.813,0.81-0.977
		c7.424-2.232,14.84-4.485,22.256-6.745c0.39-0.119,0.731-0.139,1.132-0.017c7.44,2.271,14.886,4.528,22.333,6.777
		c0.446,0.134,0.686,0.324,0.764,0.827C52.447,15.451,52.798,19.032,52.779,20.917z M45.819,21.114
		c0.021-0.777-0.514-1.5-1.254-1.73c-0.88-0.275-1.482,0.165-2.065,0.75c-5.999,6.011-12.017,12.003-17.997,18.032
		c-0.545,0.55-0.785,0.465-1.268-0.028c-2.643-2.69-5.318-5.348-7.991-8.008c-0.908-0.904-1.982-0.969-2.726-0.194
		c-0.738,0.768-0.661,1.764,0.239,2.665c3.238,3.241,6.481,6.477,9.729,9.707c0.92,0.915,1.857,0.924,2.775,0.007
		c6.642-6.632,13.275-13.272,19.916-19.905C45.552,22.034,45.757,21.598,45.819,21.114z"/>
	<path fill-rule="evenodd" clip-rule="evenodd" fill="#FEFEFE" d="M45.819,21.114c-0.063,0.484-0.268,0.92-0.642,1.294
		c-6.641,6.633-13.273,13.273-19.916,19.905c-0.918,0.917-1.855,0.908-2.775-0.007c-3.249-3.23-6.491-6.466-9.729-9.707
		c-0.9-0.901-0.977-1.897-0.239-2.665c0.744-0.775,1.818-0.71,2.726,0.194c2.672,2.661,5.348,5.318,7.991,8.008
		c0.483,0.493,0.723,0.578,1.268,0.028c5.98-6.029,11.998-12.021,17.997-18.032c0.583-0.585,1.186-1.024,2.065-0.75
		C45.306,19.614,45.841,20.337,45.819,21.114z"/>
</g>
</svg>
